<svg xmlns="http://www.w3.org/2000/svg" viewBox="0 0 48 48" width="48" height="48">
  <style>
    path { fill: #000000; }
    @media (prefers-color-scheme: dark) {
      path { fill: #ffffff; }
    }
  </style>
  <path id="ghost" d="M 23.421892,1.5022884 C 11.378009,1.831657 2.4174011,12.462209 2.4174011,23.084892 v 23.124201 c 0,0 -0.038569,0.654541 1.5416168,0 1.5801961,-0.654531 3.072568,-5.995087 6.1664571,-6.166457 3.093899,-0.17137 4.614175,6.337827 7.708063,6.166457 3.093899,-0.17136 3.259561,-6.166457 6.166457,-6.166457 2.906907,0 3.072568,5.995097 6.166457,6.166457 3.09391,0.17137 4.614175,-6.337827 7.708074,-6.166457 3.093889,0.17137 4.586261,5.511926 6.166446,6.166457 1.580197,0.654541 1.541627,0 1.541627,0 V 23.084892 c 0,-10.791307 -6.166457,-21.5826036 -21.582604,-21.5826036 -0.1927,0 -0.386924,-0.00515 -0.578103,0 z M 15.829444,12.293585 c 0.140339,-0.0041 0.287014,-0.0041 0.433577,0 4.453738,0 6.430474,3.366628 6.166456,7.708073 -0.278097,-0.671398 -0.870197,-1.263508 -1.541616,-1.541606 -0.466263,-0.193143 -0.989217,-0.290069 -1.512696,-0.289061 -0.523488,0 -1.044766,0.09997 -1.512715,0.289061 -0.685952,0.27711 -1.310327,0.860613 -1.599429,1.541606 -0.401611,0.946031 -0.384651,2.13018 0,3.083234 0.267184,0.661967 0.826795,1.26246 1.483804,1.541607 0.962784,0.409088 2.174569,0.400336 3.141036,0 0.298883,-0.123801 0.581877,-0.312018 0.828625,-0.539564 -0.844742,2.106945 -2.522163,3.70734 -5.453465,3.622798 -4.442672,0 -6.4362041,-3.388526 -6.166447,-7.708075 0,-3.55185 1.382291,-7.582595 5.73287,-7.708073 z m 18.528271,0 c 0.14035,-0.0041 0.287025,-0.0041 0.433587,0 4.453728,0 6.430464,3.366628 6.166447,7.708073 -0.278108,-0.671398 -0.870208,-1.263508 -1.541607,-1.541606 -0.466283,-0.193143 -0.989226,-0.289987 -1.512705,-0.289061 -0.523488,0 -1.044766,0.09997 -1.512716,0.289061 -0.685952,0.27711 -1.310327,0.860613 -1.599419,1.541606 -0.401621,0.946031 -0.38465,2.13018 0,3.083234 0.267176,0.661967 0.826785,1.26246 1.483805,1.541607 0.962784,0.409088 2.174569,0.400336 3.141035,0 0.298874,-0.123801 0.581867,-0.312018 0.828616,-0.539564 -0.844742,2.106945 -2.522163,3.70734 -5.453456,3.622798 -4.442681,0 -6.436213,-3.388526 -6.166467,-7.708075 0,-3.55185 1.382312,-7.582595 5.73288,-7.708073 z" />
</svg>